<svg width="30" height="30" viewBox="0 0 30 30" fill="none" xmlns="http://www.w3.org/2000/svg">
<path d="M25.1494 5.12177C24.5629 4.44911 23.8667 3.9155 23.1003 3.55144C22.334 3.18738 21.5126 3 20.6831 3C19.8535 3 19.0321 3.18738 18.2658 3.55144C17.4994 3.9155 16.8032 4.44911 16.2167 5.12177L14.9997 6.51714L13.7826 5.12177C12.5981 3.76368 10.9915 3.0007 9.31633 3.0007C7.64114 3.0007 6.03455 3.76368 4.85001 5.12177C3.66547 6.47987 3 8.32185 3 10.2425C3 12.1631 3.66547 14.0051 4.85001 15.3632L6.06705 16.7586L14.9997 27L23.9323 16.7586L25.1494 15.3632C25.7361 14.6909 26.2015 13.8926 26.519 13.0139C26.8366 12.1353 27 11.1936 27 10.2425C27 9.29142 26.8366 8.34967 26.519 7.47104C26.2015 6.59241 25.7361 5.79412 25.1494 5.12177V5.12177Z" stroke="white" stroke-width="5" stroke-linecap="round" stroke-linejoin="round"/>
</svg>
